<?xml version="1.0" encoding="iso-8859-1"?>
<!-- Generator: Adobe Illustrator 19.0.0, SVG Export Plug-In . SVG Version: 6.00 Build 0)  -->
<svg version="1.1" id="Capa_1" xmlns="http://www.w3.org/2000/svg" xmlns:xlink="http://www.w3.org/1999/xlink" x="0px" y="0px"
	 viewBox="0 0 512.001 512.001" style="enable-background:new 0 0 512.001 512.001;" xml:space="preserve">
<path style="fill:#FF3100;" d="M394.549,265.368c-3.646-3.976-7.542-7.802-11.667-11.478c-4.355-3.866-8.92-7.512-13.675-10.908
	c-31.196-22.316-70.673-34.443-113.017-34.443c-28.041,0-54.825,5.324-78.784,15.401c-14.757-5.062-35.597-19.302-43.366-37.978
	c9.452-0.617,19.158-3.613,28.419-8.938c16.459-9.464,30.441-25.388,39.368-44.842c5.582-12.163,10.63-25.887,9.775-43.795
	l-2.289-47.938L183.92,81.174c-11.272,18.079-26.162,23.888-31.336,22.058c-2.776-0.982-3.447-2.172-3.896-3.306
	c-1.868-4.714-2.473-17.518,14.456-50.31c0.509-0.985,0.935-1.811,1.256-2.453l13.196-26.407l-29.105,4.936
	C122.562,30.089,99.146,50,85.853,78.954c-8.928,19.453-11.885,40.437-8.329,59.089c3.207,16.809,11.69,30.576,23.734,39.001
	c2.492,28.296,22.61,50.815,44.102,64.409c-0.759,0.525-1.517,1.051-2.268,1.587c-4.725,3.376-9.27,7.002-13.595,10.848
	c-4.175,3.716-8.111,7.592-11.787,11.617c-1.819,1.986-3.568,4.011-5.261,6.063c-28.184-11.174-60.764-1.897-81.09,15.224
	l19.307,22.918c11.231-9.461,28.847-15.488,44.581-12.131c-4.47,8.696-7.925,17.69-10.278,26.827
	c-13.032-0.89-27.461,2.096-41.504,8.806C24.39,342.331,8.549,356.887,0,373.155l26.528,13.94
	c9.895-18.832,35.635-33.436,54.771-32.918c0.103,9.088,1.382,17.631,3.822,25.574c-11.118,4.005-21.912,11.08-31.001,20.595
	c-21.149,22.141-31.107,54.422-28.038,90.899l29.863-2.513c-3.157-37.513,11.079-58.509,19.845-67.687
	c8.161-8.542,16.864-12.845,23.919-14.389c8.347,9.963,19.506,18.32,33.296,24.893c28.479,13.585,68.775,20.188,123.186,20.188
	s94.707-6.603,123.186-20.188c16.512-7.871,29.268-18.29,37.919-30.976c9.16-13.425,13.805-29.438,13.805-47.588
	C431.099,322.066,417.943,290.86,394.549,265.368z"/>
<circle style="fill:#010101;" cx="291.823" cy="180.653" r="23.308"/>
<circle style="fill:#2E2E30;" cx="223.147" cy="180.653" r="23.308"/>
<path style="fill:#C81C00;" d="M427.217,379.883c2.467-7.985,3.761-16.579,3.864-25.725c19.096-0.315,44.563,14.23,54.392,32.936
	l26.528-13.94c-8.549-16.266-24.39-30.822-43.466-39.937c-13.908-6.647-28.194-9.639-41.128-8.83
	c-1.685-6.543-3.936-13.013-6.719-19.353c16.406-4.774,35.482,1.393,47.385,11.421l19.307-22.918
	c-20.531-17.296-53.567-26.592-81.946-14.885c-3.333-4.568-6.961-9.007-10.885-13.283c-3.646-3.976-7.542-7.802-11.667-11.478
	c-4.355-3.866-8.92-7.512-13.675-10.908c-1.645-1.177-3.319-2.319-5.011-3.439c19.511-13.171,37.248-33.687,40.791-59.14
	c14.974-7.802,25.583-23.083,29.259-42.358c3.558-18.652,0.6-39.637-8.33-59.091c-13.293-28.953-36.708-48.863-62.637-53.261
	l-29.108-4.937l13.2,26.409c0.32,0.642,0.745,1.466,1.253,2.449c16.932,32.793,16.327,45.598,14.459,50.313
	c-0.449,1.135-1.12,2.323-3.896,3.306c-5.176,1.829-20.064-3.98-31.337-22.058l-25.397-40.734l-2.285,47.944
	c-0.853,17.909,4.194,31.632,9.776,43.794c8.928,19.454,22.91,35.378,39.367,44.842c7.657,4.403,15.617,7.209,23.485,8.401
	c-7.091,17.694-25.963,31.486-40.564,37.389c-23.252-9.345-49.063-14.275-76.043-14.275c-0.063,0-0.126,0.002-0.19,0.002v243.193
	c0.064,0,0.126,0.001,0.19,0.001c54.411,0,94.707-6.603,123.186-20.188c13.754-6.557,24.892-14.887,33.232-24.817
	c6.994,1.603,15.565,5.9,23.602,14.313c8.766,9.178,23.002,30.174,19.845,67.687l29.862,2.513
	c3.069-36.477-6.888-68.758-28.038-90.899C448.885,390.927,438.214,383.907,427.217,379.883z"/>
<path style="fill:#FFFFFF;" d="M394.549,265.368c-9.13,4.735-19.848,8.201-31.636,8.201c-5.864,0-8.531,2.587-15.233,10.608
	c-7.532,9.01-17.851,21.357-38.218,21.357s-30.687-12.347-38.228-21.357c-6.703-8.021-9.36-10.608-15.233-10.608
	c-5.864,0-8.531,2.587-15.233,10.608c-7.532,9.01-17.851,21.357-38.218,21.357s-30.687-12.347-38.228-21.357
	c-6.703-8.021-9.37-10.608-15.233-10.608c-11.667,0-22.296-3.406-31.376-8.061c3.676-4.026,7.612-7.901,11.787-11.617
	c4.325-3.846,8.87-7.472,13.595-10.848c1.958,0.36,3.966,0.559,5.993,0.559c20.368,0,30.687,12.337,38.218,21.347
	c6.713,8.021,9.37,10.618,15.243,10.618c5.864,0,8.531-2.597,15.233-10.608c7.532-9.02,17.861-21.357,38.218-21.357
	c20.368,0,30.687,12.337,38.228,21.357c6.703,8.011,9.36,10.608,15.233,10.608c5.864,0,8.531-2.597,15.233-10.608
	c7.532-9.02,17.851-21.357,38.218-21.357c2.138,0,4.235-0.22,6.293-0.619c4.755,3.396,9.32,7.042,13.675,10.908
	C387.007,257.566,390.903,261.392,394.549,265.368z"/>
<path style="fill:#F9B7A7;" d="M382.881,253.89c-4.355-3.866-8.92-7.512-13.675-10.908c-2.058,0.4-4.155,0.619-6.293,0.619
	c-20.368,0-30.687,12.337-38.218,21.357c-6.703,8.011-9.37,10.608-15.233,10.608c-5.874,0-8.531-2.597-15.233-10.608
	c-7.542-9.02-17.861-21.357-38.228-21.357v29.967c5.874,0,8.531,2.587,15.233,10.608c7.542,9.01,17.861,21.357,38.228,21.357
	s30.687-12.347,38.218-21.357c6.703-8.021,9.37-10.608,15.233-10.608c11.787,0,22.506-3.466,31.636-8.201
	C390.903,261.392,387.007,257.566,382.881,253.89z"/>
<g>
</g>
<g>
</g>
<g>
</g>
<g>
</g>
<g>
</g>
<g>
</g>
<g>
</g>
<g>
</g>
<g>
</g>
<g>
</g>
<g>
</g>
<g>
</g>
<g>
</g>
<g>
</g>
<g>
</g>
</svg>
