<svg id="Capa_1" enable-background="new 0 0 512.002 512.002" height="512" viewBox="0 0 512.002 512.002" width="512" xmlns="http://www.w3.org/2000/svg"><g clip-rule="evenodd" fill-rule="evenodd"><path d="m290.998 50h100.004v-40h-100.004c-16.521 0-31.526 6.744-42.391 17.609s-17.609 25.87-17.609 42.391v42h40v-42c0-5.479 2.256-10.475 5.89-14.109 3.635-3.635 8.631-5.891 14.11-5.891z" fill="#ff5d7d"/><path d="m230.998 112.001h40v130.003h-40z" fill="#ff9eb1"/><path d="m170.999 202.002h-10c-22 0-40 18-40.001 40.001h110v-40.001-40.001-50h-59.999c-5.5 0-10 4.5-10 10v30c0 5.5 4.5 10 10 10h.001v40.001z" fill="#cff5fd"/><path d="m270.998 112.001v50 40.001 40.001l110-.001c0-22-18-40-40-40h-10l.001-40.001c5.5 0 10-4.5 10-10v-30c0-5.5-4.5-10-10-10z" fill="#cff5fd"/><path d="m270.998 162.001h60v40.001h-60z" fill="#cff5fd"/><path d="m380.999 242.004h-110-40l-109.999-.001v220c0 22 18 40 40 40h180c22 0 40-18 40-40v-219.999zm-101.587 44.177c4.763-2.75 10.91-1.103 13.66 3.66l20 34.642c2.75 4.763 1.103 10.91-3.66 13.66l-34.642 20c-4.763 2.75-10.91 1.103-13.66-3.66l-20-34.641c-2.75-4.763-1.103-10.91 3.66-13.66zm-81.818 112.976h40c5.5 0 10 4.5 10 10v40.001c0 5.5-4.5 10-10 10h-40c-5.5 0-10-4.5-10-10v-40.001c0-5.501 4.499-10 10-10z" fill="#66e0f7"/><path d="m313.072 324.483-20-34.642c-2.75-4.763-8.897-6.41-13.66-3.66l-34.642 20c-4.763 2.75-6.41 8.897-3.66 13.66l20 34.641c2.75 4.763 8.897 6.41 13.66 3.66l34.642-20c4.763-2.749 6.41-8.896 3.66-13.659z" fill="#cff5fd"/><path d="m237.594 399.157h-40c-5.5 0-10 4.5-10 10v40.001c0 5.5 4.5 10 10 10h40c5.5 0 10-4.5 10-10v-40.001c0-5.501-4.5-10-10-10z" fill="#cff5fd"/></g><path d="m391.003 0h-100.005c-18.651 0-36.218 7.294-49.462 20.538-13.244 13.245-20.538 30.811-20.538 49.462v32h-49.999c-11.028 0-20 8.972-20 20v30c0 7.384 4.032 13.829 10 17.294v22.708c-27.57 0-50 22.43-50 50v220c0 27.57 22.43 50 50 50h180c27.57 0 50-22.43 50-50v-220c0-27.57-22.43-50-50-50h-.001v-22.707c5.968-3.464 10.001-9.911 10.001-17.295v-30c0-11.028-8.972-20-20-20h-50.001v-32c0-2.628 1.052-5.128 2.961-7.038 1.91-1.91 4.41-2.962 7.039-2.962h100.005c5.522 0 10-4.477 10-10v-40c0-5.523-4.478-10-10-10zm-170.005 122v30h-49.999l-.002-30zm20 110.004v-20.001h20v20.001zm0-40.002v-20.001h20v20.001zm0-40.001v-30h20v30zm-59.999 20h39.999v20.001h-39.999zm160 320.001h-180c-16.542 0-30-13.458-30-30v-220c0-16.542 13.458-30 30-30h59.999v20.001h-9.999c-5.522 0-10 4.477-10 10s4.478 10 10 10h160v197.152h-31.745c-5.522 0-10 4.477-10 10s4.478 10 10 10h30.876c-3.217 13.099-15.055 22.847-29.131 22.847zm28.28-259.998h-88.281v-20.001h60.001c13.037-.001 24.153 8.361 28.28 20.001zm-88.281-40.002v-20.001h40v20.001zm50.001-70.002v30h-50.001v-30zm50.004-82h-90.005c-7.971 0-15.492 3.132-21.181 8.819-5.688 5.688-8.819 13.21-8.819 21.18v32h-20v-31.999c0-13.309 5.214-25.853 14.681-35.319 9.467-9.468 22.009-14.681 35.319-14.681h90.005z"/><path d="m237.594 389.157h-40c-11.028 0-20 8.972-20 20v40c0 11.028 8.972 20 20 20h40c11.028 0 20-8.972 20-20v-40c0-11.029-8.972-20-20-20zm0 60h-40l-.002-40h40.002z"/><path d="m301.731 284.841c-5.514-9.55-17.771-12.833-27.319-7.32l-34.643 20c-4.617 2.666-7.922 6.979-9.307 12.147s-.679 10.557 1.987 15.173l20 34.641c3.7 6.41 10.436 9.996 17.354 9.996 3.39 0 6.825-.862 9.966-2.675l34.642-20c4.617-2.666 7.923-6.98 9.307-12.148 1.385-5.167.68-10.556-1.986-15.173zm-31.96 64.642-20.002-34.64.001-.001 34.642-20 20 34.642z"/><path d="m294.258 449.156h-.008c-5.522 0-9.996 4.477-9.996 10s4.481 10 10.004 10 10-4.477 10-10-4.478-10-10-10z"/><path d="m165.995 232.002c-5.522 0-10 4.477-10 10s4.478 10 10 10h.008c5.522 0 9.996-4.477 9.996-10s-4.481-10-10.004-10z"/></svg>