<?xml version="1.0" encoding="iso-8859-1"?>
<!-- Generator: Adobe Illustrator 19.0.0, SVG Export Plug-In . SVG Version: 6.00 Build 0)  -->
<svg version="1.1" id="Capa_1" xmlns="http://www.w3.org/2000/svg" xmlns:xlink="http://www.w3.org/1999/xlink" x="0px" y="0px"
	 viewBox="0 0 511.597 511.597" style="enable-background:new 0 0 511.597 511.597;" xml:space="preserve">
<g>
	<rect x="115.908" y="339.731" style="fill:#FFD2A6;" width="279.78" height="167.87"/>
	<rect x="115.908" y="148.651" style="fill:#FFD2A6;" width="15.987" height="175.78"/>
	<rect x="379.698" y="148.651" style="fill:#FFD2A6;" width="15.987" height="175.78"/>
</g>
<polygon style="fill:#965353;" points="255.798,3.999 59.954,139.891 59.954,147.885 451.643,147.885 451.643,139.891 "/>
<g style="opacity:0.2;">
	<polygon style="fill:#FFFFFF;" points="263.792,9.545 255.798,3.999 59.954,139.891 59.954,147.885 75.941,147.885 75.941,139.891 
			"/>
</g>
<g style="opacity:0.2;">
	<polygon points="263.78,9.534 451.643,139.891 451.643,147.885 435.655,147.885 435.655,139.891 255.814,15.107 	"/>
</g>
<rect x="91.928" y="323.741" style="fill:#965353;" width="327.74" height="15.987"/>
<rect x="179.858" y="259.801" style="fill:#E6E9ED;" width="23.981" height="15.987"/>
<rect x="179.858" y="275.781" style="fill:#ED5564;" width="23.981" height="31.975"/>
<path style="fill:#965353;" d="M297.999,267.79c-3.833,4.246-6.229,9.813-6.229,15.987c0,13.239,10.742,23.98,23.981,23.98
	s23.98-10.741,23.98-23.98c0-6.175-2.396-11.741-6.229-15.987H297.999z"/>
<g style="opacity:0.3;">
	<path style="fill:#FFFFFF;" d="M299.764,283.777c0-6.175,2.396-11.741,6.229-15.987H298c-3.833,4.246-6.229,9.813-6.229,15.987
		c0,13.239,10.742,23.98,23.981,23.98c1.374,0,2.685-0.188,3.997-0.405C308.412,305.439,299.764,295.65,299.764,283.777z"/>
</g>
<g style="opacity:0.4;">
	<rect x="115.908" y="347.731" style="fill:#FFFFFF;" width="7.994" height="159.87"/>
</g>
<g>
	<rect x="155.878" y="395.691" style="fill:#ED5564;" width="79.937" height="23.98"/>
	<rect x="275.778" y="395.691" style="fill:#ED5564;" width="79.937" height="23.98"/>
</g>
<g>
	<rect x="187.848" y="419.671" style="fill:#E6E9ED;" width="15.987" height="87.93"/>
	<rect x="307.758" y="419.671" style="fill:#E6E9ED;" width="15.987" height="87.93"/>
</g>
<g style="opacity:0.2;">
	<rect x="387.698" y="347.731" width="7.994" height="159.87"/>
</g>
<g style="opacity:0.2;">
	<rect x="115.908" y="339.731" width="279.78" height="7.994"/>
</g>
<g style="opacity:0.2;">
	<rect x="115.908" y="315.751" width="15.987" height="7.993"/>
</g>
<g style="opacity:0.2;">
	<rect x="379.698" y="315.751" width="15.987" height="7.993"/>
</g>
<g style="opacity:0.5;">
	<rect x="115.908" y="147.881" style="fill:#FFFFFF;" width="7.994" height="167.87"/>
</g>
<g style="opacity:0.5;">
	<rect x="379.698" y="147.881" style="fill:#FFFFFF;" width="7.993" height="167.87"/>
</g>
<g style="opacity:0.2;">
	<rect x="91.928" y="323.741" style="fill:#FFFFFF;" width="7.994" height="15.987"/>
</g>
<g style="opacity:0.2;">
	<rect x="411.678" y="323.741" width="7.993" height="15.987"/>
</g>
<g style="opacity:0.3;">
	<rect x="155.888" y="395.691" style="fill:#FFFFFF;" width="79.937" height="7.993"/>
</g>
<g style="opacity:0.3;">
	<rect x="275.778" y="395.691" style="fill:#FFFFFF;" width="79.937" height="7.993"/>
</g>
<g style="opacity:0.5;">
	<rect x="179.858" y="259.801" style="fill:#FFFFFF;" width="7.994" height="47.962"/>
</g>
<g>
	<path style="fill:#3A3847;" d="M367.944,135.895c-2.201,0-4.027-1.788-4.027-3.997s1.748-3.997,3.949-3.997h0.078
		c2.217,0,3.997,1.788,3.997,3.997S370.16,135.895,367.944,135.895z"/>
	<path style="fill:#3A3847;" d="M399.918,135.895c-2.201,0-4.027-1.788-4.027-3.997s1.748-3.997,3.949-3.997h0.078
		c2.217,0,3.997,1.788,3.997,3.997S402.135,135.895,399.918,135.895z"/>
	<path style="fill:#3A3847;" d="M431.893,135.895c-2.201,0-4.027-1.788-4.027-3.997s1.748-3.997,3.949-3.997h0.078
		c2.217,0,3.997,1.788,3.997,3.997S434.11,135.895,431.893,135.895z"/>
	<path style="fill:#3A3847;" d="M303.994,135.895c-2.201,0-4.027-1.788-4.027-3.997s1.748-3.997,3.949-3.997h0.078
		c2.217,0,3.997,1.788,3.997,3.997S306.211,135.895,303.994,135.895z"/>
	<path style="fill:#3A3847;" d="M335.969,135.895c-2.201,0-4.027-1.788-4.027-3.997s1.748-3.997,3.949-3.997h0.078
		c2.217,0,3.997,1.788,3.997,3.997S338.186,135.895,335.969,135.895z"/>
	<path style="fill:#3A3847;" d="M240.041,135.895c-2.205,0-4.036-1.788-4.036-3.997s1.749-3.997,3.958-3.997h0.078
		c2.209,0,3.997,1.788,3.997,3.997S242.251,135.895,240.041,135.895z"/>
	<path style="fill:#3A3847;" d="M272.02,135.895c-2.209,0-4.043-1.788-4.043-3.997s1.748-3.997,3.965-3.997h0.078
		c2.201,0,3.997,1.788,3.997,3.997S274.221,135.895,272.02,135.895z"/>
	<path style="fill:#3A3847;" d="M176.092,135.895c-2.205,0-4.036-1.788-4.036-3.997s1.749-3.997,3.958-3.997h0.078
		c2.209,0,3.997,1.788,3.997,3.997S178.301,135.895,176.092,135.895z"/>
	<path style="fill:#3A3847;" d="M208.067,135.895c-2.205,0-4.036-1.788-4.036-3.997s1.749-3.997,3.958-3.997h0.078
		c2.209,0,3.997,1.788,3.997,3.997S210.276,135.895,208.067,135.895z"/>
	<path style="fill:#3A3847;" d="M383.931,119.907c-2.201,0-4.028-1.788-4.028-3.997s1.749-3.997,3.95-3.997h0.078
		c2.218,0,3.997,1.788,3.997,3.997S386.149,119.907,383.931,119.907z"/>
	<path style="fill:#3A3847;" d="M351.956,119.907c-2.201,0-4.028-1.788-4.028-3.997s1.749-3.997,3.95-3.997h0.078
		c2.218,0,3.997,1.788,3.997,3.997S354.174,119.907,351.956,119.907z"/>
	<path style="fill:#3A3847;" d="M319.982,119.907c-2.201,0-4.028-1.788-4.028-3.997s1.749-3.997,3.95-3.997h0.078
		c2.218,0,3.997,1.788,3.997,3.997S322.199,119.907,319.982,119.907z"/>
	<path style="fill:#3A3847;" d="M288.007,119.907c-2.209,0-4.044-1.788-4.044-3.997s1.749-3.997,3.966-3.997h0.078
		c2.202,0,3.997,1.788,3.997,3.997S290.209,119.907,288.007,119.907z"/>
	<path style="fill:#3A3847;" d="M256.028,119.907c-2.205,0-4.036-1.788-4.036-3.997s1.749-3.997,3.958-3.997h0.078
		c2.21,0,3.997,1.788,3.997,3.997S258.238,119.907,256.028,119.907z"/>
	<path style="fill:#3A3847;" d="M224.054,119.907c-2.205,0-4.036-1.788-4.036-3.997s1.749-3.997,3.958-3.997h0.078
		c2.209,0,3.997,1.788,3.997,3.997S226.263,119.907,224.054,119.907z"/>
	<path style="fill:#3A3847;" d="M192.079,119.907c-2.205,0-4.036-1.788-4.036-3.997s1.749-3.997,3.958-3.997h0.078
		c2.209,0,3.997,1.788,3.997,3.997S194.288,119.907,192.079,119.907z"/>
	<path style="fill:#3A3847;" d="M160.105,119.907c-2.205,0-4.036-1.788-4.036-3.997s1.749-3.997,3.958-3.997h0.078
		c2.209,0,3.997,1.788,3.997,3.997S162.314,119.907,160.105,119.907z"/>
	<path style="fill:#3A3847;" d="M128.134,119.907c-2.205,0-4.036-1.788-4.036-3.997s1.749-3.997,3.958-3.997h0.078
		c2.209,0,3.997,1.788,3.997,3.997S130.343,119.907,128.134,119.907z"/>
	<path style="fill:#3A3847;" d="M144.117,135.895c-2.205,0-4.036-1.788-4.036-3.997s1.749-3.997,3.958-3.997h0.078
		c2.209,0,3.997,1.788,3.997,3.997S146.326,135.895,144.117,135.895z"/>
	<path style="fill:#3A3847;" d="M112.151,135.895c-2.205,0-4.036-1.788-4.036-3.997s1.749-3.997,3.958-3.997h0.078
		c2.209,0,3.997,1.788,3.997,3.997S114.36,135.895,112.151,135.895z"/>
	<path style="fill:#3A3847;" d="M80.176,135.895c-2.205,0-4.036-1.788-4.036-3.997s1.749-3.997,3.958-3.997h0.078
		c2.209,0,3.997,1.788,3.997,3.997S82.385,135.895,80.176,135.895z"/>
	<path style="fill:#3A3847;" d="M367.944,103.92c-2.201,0-4.027-1.788-4.027-3.997s1.748-3.997,3.949-3.997h0.078
		c2.217,0,3.997,1.788,3.997,3.997S370.16,103.92,367.944,103.92z"/>
	<path style="fill:#3A3847;" d="M351.956,87.933c-2.201,0-4.028-1.788-4.028-3.997s1.749-3.997,3.95-3.997h0.078
		c2.218,0,3.997,1.788,3.997,3.997S354.174,87.933,351.956,87.933z"/>
	<path style="fill:#3A3847;" d="M319.982,87.933c-2.201,0-4.028-1.788-4.028-3.997s1.749-3.997,3.95-3.997h0.078
		c2.218,0,3.997,1.788,3.997,3.997S322.199,87.933,319.982,87.933z"/>
	<path style="fill:#3A3847;" d="M303.994,71.945c-2.201,0-4.027-1.788-4.027-3.997s1.748-3.997,3.949-3.997h0.078
		c2.217,0,3.997,1.788,3.997,3.997S306.211,71.945,303.994,71.945z"/>
	<path style="fill:#3A3847;" d="M335.969,71.945c-2.201,0-4.027-1.788-4.027-3.997s1.748-3.997,3.949-3.997h0.078
		c2.217,0,3.997,1.788,3.997,3.997S338.186,71.945,335.969,71.945z"/>
	<path style="fill:#3A3847;" d="M335.969,103.92c-2.201,0-4.027-1.788-4.027-3.997s1.748-3.997,3.949-3.997h0.078
		c2.217,0,3.997,1.788,3.997,3.997S338.186,103.92,335.969,103.92z"/>
	<path style="fill:#3A3847;" d="M303.994,103.92c-2.201,0-4.027-1.788-4.027-3.997s1.748-3.997,3.949-3.997h0.078
		c2.217,0,3.997,1.788,3.997,3.997S306.211,103.92,303.994,103.92z"/>
	<path style="fill:#3A3847;" d="M288.007,87.933c-2.209,0-4.044-1.788-4.044-3.997s1.749-3.997,3.966-3.997h0.078
		c2.202,0,3.997,1.788,3.997,3.997S290.209,87.933,288.007,87.933z"/>
	<path style="fill:#3A3847;" d="M256.028,87.933c-2.205,0-4.036-1.788-4.036-3.997s1.749-3.997,3.958-3.997h0.078
		c2.21,0,3.997,1.788,3.997,3.997S258.238,87.933,256.028,87.933z"/>
	<path style="fill:#3A3847;" d="M240.041,71.945c-2.205,0-4.036-1.788-4.036-3.997s1.749-3.997,3.958-3.997h0.078
		c2.209,0,3.997,1.788,3.997,3.997S242.251,71.945,240.041,71.945z"/>
	<path style="fill:#3A3847;" d="M272.02,71.945c-2.209,0-4.043-1.788-4.043-3.997s1.748-3.997,3.965-3.997h0.078
		c2.201,0,3.997,1.788,3.997,3.997S274.221,71.945,272.02,71.945z"/>
	<path style="fill:#3A3847;" d="M272.02,103.92c-2.209,0-4.043-1.788-4.043-3.997s1.748-3.997,3.965-3.997h0.078
		c2.201,0,3.997,1.788,3.997,3.997S274.221,103.92,272.02,103.92z"/>
	<path style="fill:#3A3847;" d="M240.041,103.92c-2.205,0-4.036-1.788-4.036-3.997s1.749-3.997,3.958-3.997h0.078
		c2.209,0,3.997,1.788,3.997,3.997S242.251,103.92,240.041,103.92z"/>
	<path style="fill:#3A3847;" d="M224.054,87.933c-2.205,0-4.036-1.788-4.036-3.997s1.749-3.997,3.958-3.997h0.078
		c2.209,0,3.997,1.788,3.997,3.997S226.263,87.933,224.054,87.933z"/>
	<path style="fill:#3A3847;" d="M192.079,87.933c-2.205,0-4.036-1.788-4.036-3.997s1.749-3.997,3.958-3.997h0.078
		c2.209,0,3.997,1.788,3.997,3.997S194.288,87.933,192.079,87.933z"/>
	<path style="fill:#3A3847;" d="M176.092,71.945c-2.205,0-4.036-1.788-4.036-3.997s1.749-3.997,3.958-3.997h0.078
		c2.209,0,3.997,1.788,3.997,3.997S178.301,71.945,176.092,71.945z"/>
	<path style="fill:#3A3847;" d="M208.067,71.945c-2.205,0-4.036-1.788-4.036-3.997s1.749-3.997,3.958-3.997h0.078
		c2.209,0,3.997,1.788,3.997,3.997S210.276,71.945,208.067,71.945z"/>
	<path style="fill:#3A3847;" d="M208.067,103.92c-2.205,0-4.036-1.788-4.036-3.997s1.749-3.997,3.958-3.997h0.078
		c2.209,0,3.997,1.788,3.997,3.997S210.276,103.92,208.067,103.92z"/>
	<path style="fill:#3A3847;" d="M176.092,103.92c-2.205,0-4.036-1.788-4.036-3.997s1.749-3.997,3.958-3.997h0.078
		c2.209,0,3.997,1.788,3.997,3.997S178.301,103.92,176.092,103.92z"/>
	<path style="fill:#3A3847;" d="M160.105,87.933c-2.205,0-4.036-1.788-4.036-3.997s1.749-3.997,3.958-3.997h0.078
		c2.209,0,3.997,1.788,3.997,3.997S162.314,87.933,160.105,87.933z"/>
	<path style="fill:#3A3847;" d="M319.982,55.958c-2.201,0-4.028-1.788-4.028-3.997s1.749-3.997,3.95-3.997h0.078
		c2.218,0,3.997,1.788,3.997,3.997S322.199,55.958,319.982,55.958z"/>
	<path style="fill:#3A3847;" d="M288.007,55.958c-2.209,0-4.044-1.788-4.044-3.997s1.749-3.997,3.966-3.997h0.078
		c2.202,0,3.997,1.788,3.997,3.997S290.209,55.958,288.007,55.958z"/>
	<path style="fill:#3A3847;" d="M256.028,55.958c-2.205,0-4.036-1.788-4.036-3.997s1.749-3.997,3.958-3.997h0.078
		c2.21,0,3.997,1.788,3.997,3.997S258.238,55.958,256.028,55.958z"/>
	<path style="fill:#3A3847;" d="M224.054,55.958c-2.205,0-4.036-1.788-4.036-3.997s1.749-3.997,3.958-3.997h0.078
		c2.209,0,3.997,1.788,3.997,3.997S226.263,55.958,224.054,55.958z"/>
	<path style="fill:#3A3847;" d="M192.079,55.958c-2.205,0-4.036-1.788-4.036-3.997s1.749-3.997,3.958-3.997h0.078
		c2.209,0,3.997,1.788,3.997,3.997S194.288,55.958,192.079,55.958z"/>
	<path style="fill:#3A3847;" d="M144.117,103.92c-2.205,0-4.036-1.788-4.036-3.997s1.749-3.997,3.958-3.997h0.078
		c2.209,0,3.997,1.788,3.997,3.997S146.326,103.92,144.117,103.92z"/>
	<path style="fill:#3A3847;" d="M256.028,23.983c-2.205,0-4.036-1.788-4.036-3.997s1.749-3.997,3.958-3.997h0.078
		c2.21,0,3.997,1.788,3.997,3.997S258.238,23.983,256.028,23.983z"/>
	<path style="fill:#3A3847;" d="M272.02,39.971c-2.209,0-4.043-1.788-4.043-3.997s1.748-3.997,3.965-3.997h0.078
		c2.201,0,3.997,1.788,3.997,3.997S274.221,39.971,272.02,39.971z"/>
	<path style="fill:#3A3847;" d="M240.041,39.971c-2.205,0-4.036-1.788-4.036-3.997s1.749-3.997,3.958-3.997h0.078
		c2.209,0,3.997,1.788,3.997,3.997S242.251,39.971,240.041,39.971z"/>
	<path style="fill:#3A3847;" d="M451.643,143.888c-0.788,0-1.584-0.23-2.279-0.714L253.519,7.281
		c-1.811-1.257-2.264-3.747-1.003-5.562c1.257-1.804,3.747-2.271,5.563-1.003l195.844,135.892c1.812,1.257,2.264,3.747,1,5.563
		C454.149,143.287,452.907,143.888,451.643,143.888z"/>
	<path style="fill:#3A3847;" d="M59.958,143.888c-1.265,0-2.51-0.601-3.287-1.717c-1.261-1.815-0.808-4.306,1.003-5.563
		L253.519,0.717c1.815-1.269,4.302-0.801,5.563,1.003c1.261,1.815,0.808,4.305-1.003,5.562L62.234,143.174
		C61.538,143.658,60.742,143.888,59.958,143.888z"/>
	<path style="fill:#3A3847;" d="M435.655,151.882H75.941c-2.209,0-3.997-1.788-3.997-3.997s1.787-3.997,3.997-3.997h359.714
		c2.21,0,3.997,1.788,3.997,3.997S437.865,151.882,435.655,151.882z"/>
	<path style="fill:#3A3847;" d="M59.954,159.875c-2.209,0-3.997-1.787-3.997-3.997v-15.987c0-2.209,1.787-3.997,3.997-3.997
		s3.997,1.787,3.997,3.997v15.987C63.95,158.088,62.163,159.875,59.954,159.875z"/>
	<path style="fill:#3A3847;" d="M451.643,159.875c-2.209,0-3.996-1.787-3.996-3.997v-15.987c0-2.209,1.787-3.997,3.996-3.997
		s3.997,1.787,3.997,3.997v15.987C455.64,158.088,453.852,159.875,451.643,159.875z"/>
	<path style="fill:#3A3847;" d="M395.688,159.875c-2.209,0-3.997-1.787-3.997-3.997v-7.994c0-2.209,1.788-3.997,3.997-3.997
		s3.996,1.788,3.996,3.997v7.994C399.684,158.088,397.897,159.875,395.688,159.875z"/>
	<path style="fill:#3A3847;" d="M355.719,159.875c-2.209,0-3.996-1.787-3.996-3.997v-7.994c0-2.209,1.787-3.997,3.996-3.997
		s3.997,1.788,3.997,3.997v7.994C359.716,158.088,357.928,159.875,355.719,159.875z"/>
	<path style="fill:#3A3847;" d="M435.655,159.875c-2.209,0-3.997-1.787-3.997-3.997v-7.994c0-2.209,1.788-3.997,3.997-3.997
		c2.21,0,3.997,1.788,3.997,3.997v7.994C439.652,158.088,437.865,159.875,435.655,159.875z"/>
	<path style="fill:#3A3847;" d="M315.751,159.875c-2.21,0-3.997-1.787-3.997-3.997v-7.994c0-2.209,1.787-3.997,3.997-3.997
		c2.209,0,3.997,1.788,3.997,3.997v7.994C319.748,158.088,317.96,159.875,315.751,159.875z"/>
	<path style="fill:#3A3847;" d="M275.782,159.875c-2.209,0-3.997-1.787-3.997-3.997v-7.994c0-2.209,1.788-3.997,3.997-3.997
		s3.997,1.788,3.997,3.997v7.994C279.779,158.088,277.991,159.875,275.782,159.875z"/>
	<path style="fill:#3A3847;" d="M235.814,159.875c-2.209,0-3.997-1.787-3.997-3.997v-7.994c0-2.209,1.788-3.997,3.997-3.997
		s3.997,1.788,3.997,3.997v7.994C239.811,158.088,238.024,159.875,235.814,159.875z"/>
	<path style="fill:#3A3847;" d="M195.846,159.875c-2.209,0-3.997-1.787-3.997-3.997v-7.994c0-2.209,1.788-3.997,3.997-3.997
		s3.997,1.788,3.997,3.997v7.994C199.843,158.088,198.055,159.875,195.846,159.875z"/>
	<path style="fill:#3A3847;" d="M155.878,159.875c-2.209,0-3.997-1.787-3.997-3.997v-7.994c0-2.209,1.787-3.997,3.997-3.997
		s3.997,1.788,3.997,3.997v7.994C159.874,158.088,158.087,159.875,155.878,159.875z"/>
	<path style="fill:#3A3847;" d="M115.909,159.875c-2.209,0-3.997-1.787-3.997-3.997v-7.994c0-2.209,1.788-3.997,3.997-3.997
		s3.997,1.788,3.997,3.997v7.994C119.906,158.088,118.118,159.875,115.909,159.875z"/>
	<path style="fill:#3A3847;" d="M75.941,159.875c-2.209,0-3.997-1.787-3.997-3.997v-7.994c0-2.209,1.787-3.997,3.997-3.997
		s3.997,1.788,3.997,3.997v7.994C79.938,158.088,78.151,159.875,75.941,159.875z"/>
	<path style="fill:#3A3847;" d="M395.688,319.749c-2.209,0-3.997-1.788-3.997-3.997v-151.88c0-2.209,1.788-3.997,3.997-3.997
		s3.996,1.788,3.996,3.997v151.88C399.684,317.961,397.897,319.749,395.688,319.749z"/>
	<path style="fill:#3A3847;" d="M115.909,319.749c-2.209,0-3.997-1.788-3.997-3.997v-151.88c0-2.209,1.788-3.997,3.997-3.997
		s3.997,1.788,3.997,3.997v151.88C119.906,317.961,118.118,319.749,115.909,319.749z"/>
	<path style="fill:#3A3847;" d="M379.7,319.749c-2.21,0-3.997-1.788-3.997-3.997V155.878c0-2.209,1.787-3.997,3.997-3.997
		c2.209,0,3.997,1.787,3.997,3.997v159.874C383.697,317.961,381.909,319.749,379.7,319.749z"/>
	<path style="fill:#3A3847;" d="M131.897,319.749c-2.209,0-3.997-1.788-3.997-3.997V155.878c0-2.209,1.788-3.997,3.997-3.997
		s3.997,1.787,3.997,3.997v159.874C135.894,317.961,134.106,319.749,131.897,319.749z"/>
	<path style="fill:#3A3847;" d="M419.668,327.742H91.928c-2.209,0-3.997-1.788-3.997-3.997s1.787-3.996,3.997-3.996h327.74
		c2.209,0,3.997,1.787,3.997,3.996S421.877,327.742,419.668,327.742z"/>
	<path style="fill:#3A3847;" d="M91.928,343.73c-2.209,0-3.997-1.788-3.997-3.997v-15.987c0-2.209,1.787-3.996,3.997-3.996
		s3.997,1.787,3.997,3.996v15.987C95.925,341.941,94.138,343.73,91.928,343.73z"/>
	<path style="fill:#3A3847;" d="M419.668,343.73H91.928c-2.209,0-3.997-1.788-3.997-3.997s1.787-3.997,3.997-3.997h327.74
		c2.209,0,3.997,1.788,3.997,3.997S421.877,343.73,419.668,343.73z"/>
	<path style="fill:#3A3847;" d="M419.668,343.73c-2.209,0-3.996-1.788-3.996-3.997v-15.987c0-2.209,1.787-3.996,3.996-3.996
		s3.997,1.787,3.997,3.996v15.987C423.665,341.941,421.877,343.73,419.668,343.73z"/>
	<path style="fill:#3A3847;" d="M115.909,511.597c-2.209,0-3.997-1.788-3.997-3.997V347.727c0-2.21,1.788-3.997,3.997-3.997
		s3.997,1.787,3.997,3.997V507.6C119.906,509.809,118.118,511.597,115.909,511.597z"/>
	<path style="fill:#3A3847;" d="M395.688,511.597c-2.209,0-3.997-1.788-3.997-3.997V355.72c0-2.209,1.788-3.996,3.997-3.996
		s3.996,1.787,3.996,3.996V507.6C399.684,509.809,397.897,511.597,395.688,511.597z"/>
	<path style="fill:#3A3847;" d="M315.751,383.698c-2.21,0-3.997-1.788-3.997-3.997v-31.975c0-2.21,1.787-3.997,3.997-3.997
		c2.209,0,3.997,1.787,3.997,3.997v31.975C319.748,381.91,317.96,383.698,315.751,383.698z"/>
	<path style="fill:#3A3847;" d="M355.719,383.698c-2.209,0-3.996-1.788-3.996-3.997v-31.975c0-2.21,1.787-3.997,3.996-3.997
		s3.997,1.787,3.997,3.997v31.975C359.716,381.91,357.928,383.698,355.719,383.698z"/>
	<path style="fill:#3A3847;" d="M355.719,504.267c-2.209,0-3.996-1.788-3.996-3.997v-64.613c0-2.209,1.787-3.997,3.996-3.997
		s3.997,1.788,3.997,3.997v64.613C359.716,502.479,357.928,504.267,355.719,504.267z"/>
	<path style="fill:#3A3847;" d="M275.782,383.698c-2.209,0-3.997-1.788-3.997-3.997v-31.975c0-2.21,1.788-3.997,3.997-3.997
		s3.997,1.787,3.997,3.997v31.975C279.779,381.91,277.991,383.698,275.782,383.698z"/>
	<path style="fill:#3A3847;" d="M275.782,504.267c-2.209,0-3.997-1.788-3.997-3.997v-64.613c0-2.209,1.788-3.997,3.997-3.997
		s3.997,1.788,3.997,3.997v64.613C279.779,502.479,277.991,504.267,275.782,504.267z"/>
	<path style="fill:#3A3847;" d="M195.846,383.698c-2.209,0-3.997-1.788-3.997-3.997v-31.975c0-2.21,1.788-3.997,3.997-3.997
		s3.997,1.787,3.997,3.997v31.975C199.843,381.91,198.055,383.698,195.846,383.698z"/>
	<path style="fill:#3A3847;" d="M235.814,383.698c-2.209,0-3.997-1.788-3.997-3.997v-31.975c0-2.21,1.788-3.997,3.997-3.997
		s3.997,1.787,3.997,3.997v31.975C239.811,381.91,238.024,383.698,235.814,383.698z"/>
	<path style="fill:#3A3847;" d="M235.814,504.267c-2.209,0-3.997-1.788-3.997-3.997v-64.613c0-2.209,1.788-3.997,3.997-3.997
		s3.997,1.788,3.997,3.997v64.613C239.811,502.479,238.024,504.267,235.814,504.267z"/>
	<path style="fill:#3A3847;" d="M155.878,383.698c-2.209,0-3.997-1.788-3.997-3.997v-31.975c0-2.21,1.787-3.997,3.997-3.997
		s3.997,1.787,3.997,3.997v31.975C159.874,381.91,158.087,383.698,155.878,383.698z"/>
	<path style="fill:#3A3847;" d="M155.878,504.267c-2.209,0-3.997-1.788-3.997-3.997v-64.613c0-2.209,1.787-3.997,3.997-3.997
		s3.997,1.788,3.997,3.997v64.613C159.874,502.479,158.087,504.267,155.878,504.267z"/>
	<path style="fill:#3A3847;" d="M395.688,511.597c-2.209,0-3.997-1.788-3.997-3.997V347.727c0-2.21,1.788-3.997,3.997-3.997
		s3.996,1.787,3.996,3.997V507.6C399.684,509.809,397.897,511.597,395.688,511.597z"/>
	<path style="fill:#3A3847;" d="M171.865,511.597H99.922c-2.209,0-3.997-1.788-3.997-3.997c0-2.21,1.788-3.997,3.997-3.997h71.943
		c2.209,0,3.997,1.787,3.997,3.997C175.861,509.809,174.074,511.597,171.865,511.597z"/>
	<path style="fill:#3A3847;" d="M411.675,511.597h-71.943c-2.209,0-3.997-1.788-3.997-3.997c0-2.21,1.788-3.997,3.997-3.997h71.943
		c2.209,0,3.997,1.787,3.997,3.997C415.672,509.809,413.884,511.597,411.675,511.597z"/>
	<path style="fill:#3A3847;" d="M187.852,509.934c-2.209,0-3.997-1.788-3.997-3.997v-86.268c0-2.209,1.788-3.996,3.997-3.996
		s3.997,1.787,3.997,3.996v86.268C191.849,508.146,190.062,509.934,187.852,509.934z"/>
	<path style="fill:#3A3847;" d="M203.84,509.934c-2.209,0-3.997-1.788-3.997-3.997v-86.268c0-2.209,1.788-3.996,3.997-3.996
		s3.997,1.787,3.997,3.996v86.268C207.836,508.146,206.049,509.934,203.84,509.934z"/>
	<path style="fill:#3A3847;" d="M235.814,423.666h-79.936c-2.209,0-3.997-1.788-3.997-3.997v-23.98c0-2.209,1.787-3.997,3.997-3.997
		h79.937c2.209,0,3.997,1.788,3.997,3.997v23.98C239.811,421.878,238.024,423.666,235.814,423.666z M159.874,415.673h71.943v-15.988
		h-71.943L159.874,415.673L159.874,415.673z"/>
	<path style="fill:#3A3847;" d="M307.757,509.934c-2.209,0-3.997-1.788-3.997-3.997v-86.268c0-2.209,1.788-3.996,3.997-3.996
		s3.997,1.787,3.997,3.996v86.268C311.754,508.146,309.966,509.934,307.757,509.934z"/>
	<path style="fill:#3A3847;" d="M323.744,509.934c-2.209,0-3.996-1.788-3.996-3.997v-86.268c0-2.209,1.787-3.996,3.996-3.996
		s3.997,1.787,3.997,3.996v86.268C327.741,508.146,325.953,509.934,323.744,509.934z"/>
	<path style="fill:#3A3847;" d="M355.719,423.666h-79.937c-2.209,0-3.997-1.788-3.997-3.997v-23.98c0-2.209,1.788-3.997,3.997-3.997
		h79.937c2.209,0,3.997,1.788,3.997,3.997v23.98C359.716,421.878,357.928,423.666,355.719,423.666z M279.779,415.673h71.943v-15.988
		h-71.943V415.673z"/>
	<path style="fill:#3A3847;" d="M203.84,311.755h-23.981c-2.209,0-3.997-1.788-3.997-3.997v-47.962c0-2.209,1.788-3.997,3.997-3.997
		h23.981c2.209,0,3.997,1.788,3.997,3.997v47.962C207.836,309.967,206.049,311.755,203.84,311.755z M183.856,303.761h15.987v-39.968
		h-15.987V303.761z"/>
	<path style="fill:#3A3847;" d="M203.84,279.78h-23.981c-2.209,0-3.997-1.788-3.997-3.997s1.788-3.997,3.997-3.997h23.981
		c2.209,0,3.997,1.788,3.997,3.997S206.049,279.78,203.84,279.78z"/>
	<path style="fill:#3A3847;" d="M187.856,303.761c-0.32,0-0.648-0.039-0.972-0.125c-2.143-0.53-3.446-2.7-2.907-4.84l15.987-63.949
		c0.53-2.147,2.705-3.451,4.844-2.908c2.143,0.534,3.446,2.705,2.908,4.844l-15.987,63.949
		C191.276,302.551,189.648,303.761,187.856,303.761z"/>
	<path style="fill:#3A3847;" d="M315.751,311.755c-15.426,0-27.978-12.553-27.978-27.978c0-6.847,2.575-13.474,7.244-18.665
		c0.765-0.844,1.842-1.319,2.974-1.319h35.519c1.132,0,2.209,0.476,2.975,1.319c4.668,5.191,7.244,11.818,7.244,18.665
		C343.729,299.202,331.176,311.755,315.751,311.755z M299.865,271.786c-2.654,3.482-4.099,7.682-4.099,11.991
		c0,11.015,8.962,19.983,19.984,19.983s19.983-8.969,19.983-19.983c0-4.31-1.443-8.509-4.098-11.991H299.865z"/>
	<path style="fill:#3A3847;" d="M307.757,271.786c-1.671,0-3.231-1.062-3.794-2.732l-7.463-22.411l-14.512-7.252
		c-1.975-0.988-2.771-3.388-1.787-5.363c0.991-1.975,3.38-2.768,5.362-1.788l15.987,7.994c0.945,0.477,1.671,1.308,2.006,2.311
		l7.994,23.981c0.695,2.092-0.438,4.355-2.529,5.05C308.6,271.716,308.179,271.786,307.757,271.786z"/>
	<path style="fill:#3A3847;" d="M307.991,287.774c-2.201,0-4.028-1.788-4.028-3.997c0-2.21,1.749-3.997,3.95-3.997h0.078
		c2.217,0,3.997,1.787,3.997,3.997C311.988,285.986,310.208,287.774,307.991,287.774z"/>
	<path style="fill:#3A3847;" d="M323.979,287.774c-2.201,0-4.028-1.788-4.028-3.997c0-2.21,1.749-3.997,3.95-3.997h0.078
		c2.217,0,3.997,1.787,3.997,3.997C327.976,285.986,326.195,287.774,323.979,287.774z"/>
	<path style="fill:#3A3847;" d="M315.985,295.768c-2.201,0-4.027-1.788-4.027-3.997s1.748-3.996,3.949-3.996h0.078
		c2.218,0,3.997,1.787,3.997,3.996S318.202,295.768,315.985,295.768z"/>
	<path style="fill:#3A3847;" d="M291.77,511.597h-71.943c-2.209,0-3.997-1.788-3.997-3.997c0-2.21,1.788-3.997,3.997-3.997h71.943
		c2.209,0,3.997,1.787,3.997,3.997C295.767,509.809,293.979,511.597,291.77,511.597z"/>
</g>
<g>
</g>
<g>
</g>
<g>
</g>
<g>
</g>
<g>
</g>
<g>
</g>
<g>
</g>
<g>
</g>
<g>
</g>
<g>
</g>
<g>
</g>
<g>
</g>
<g>
</g>
<g>
</g>
<g>
</g>
</svg>
