<svg xmlns="http://www.w3.org/2000/svg" height="511pt" version="1.1" viewBox="0 -135 511.9994 511" width="511pt">
<g id="surface1">
<path d="M 116.054688 178.917969 L 3.886719 217.089844 C 2.078125 217.679688 5.859375 217.578125 7.761719 217.679688 L 265.722656 231.375 L 509.859375 217.398438 L 395.945312 178.917969 " style=" stroke:none;fill-rule:nonzero;fill:rgb(100%,80.392157%,41.960784%);fill-opacity:1;" />
<path d="M 116.054688 178.917969 L 2.878906 217.191406 C 1.019531 217.796875 7.40625 217.191406 9.359375 217.191406 L 29.289062 217.191406 L 146.796875 178.917969 Z M 116.054688 178.917969 " style=" stroke:none;fill-rule:nonzero;fill:rgb(100%,71.372549%,29.803922%);fill-opacity:1;" />
<path d="M 324.625 39.476562 L 187.375 39.476562 C 170.625 39.476562 155.828125 50.386719 150.878906 66.390625 L 116.054688 178.917969 L 395.945312 178.917969 L 361.121094 66.390625 C 356.171875 50.386719 341.375 39.476562 324.625 39.476562 Z M 324.625 39.476562 " style=" stroke:none;fill-rule:nonzero;fill:rgb(100%,80.392157%,41.960784%);fill-opacity:1;" />
<path d="M 218.117188 39.476562 L 187.375 39.476562 C 170.625 39.476562 155.828125 50.386719 150.878906 66.390625 L 116.054688 178.917969 L 146.800781 178.917969 L 181.621094 66.390625 C 186.574219 50.386719 201.367188 39.476562 218.117188 39.476562 Z M 218.117188 39.476562 " style=" stroke:none;fill-rule:nonzero;fill:rgb(100%,71.372549%,29.803922%);fill-opacity:1;" />
<path d="M 382.679688 136.054688 L 129.320312 136.054688 L 116.054688 178.917969 L 395.945312 178.917969 Z M 382.679688 136.054688 " style=" stroke:none;fill-rule:nonzero;fill:rgb(58.431373%,80%,76.078431%);fill-opacity:1;" />
<path d="M 129.320312 136.054688 L 116.054688 178.917969 L 146.796875 178.917969 L 160.0625 136.054688 Z M 129.320312 136.054688 " style=" stroke:none;fill-rule:nonzero;fill:rgb(43.529412%,67.843137%,63.137255%);fill-opacity:1;" />
<path d="M 509.1875 217.191406 L 2.8125 217.191406 C 0.792969 217.191406 -0.566406 219.257812 0.230469 221.109375 L 5.925781 234.332031 C 7.664062 238.367188 11.640625 240.984375 16.035156 240.984375 L 495.964844 240.984375 C 500.359375 240.984375 504.335938 238.367188 506.074219 234.332031 L 511.765625 221.109375 C 512.566406 219.257812 511.207031 217.191406 509.1875 217.191406 Z M 509.1875 217.191406 " style=" stroke:none;fill-rule:nonzero;fill:rgb(58.431373%,80%,76.078431%);fill-opacity:1;" />
<path d="M 0.257812 221.171875 L 6.65625 236.027344 C 7.953125 239.035156 10.910156 240.984375 14.1875 240.984375 L 39.535156 240.984375 L 29.285156 217.191406 L 2.878906 217.191406 C 0.828125 217.191406 -0.550781 219.289062 0.257812 221.171875 Z M 0.257812 221.171875 " style=" stroke:none;fill-rule:nonzero;fill:rgb(43.529412%,67.843137%,63.137255%);fill-opacity:1;" />
<path d="M 309.796875 109.199219 L 325.511719 111.078125 " style=" stroke:none;fill-rule:nonzero;fill:rgb(100%,80.392157%,41.960784%);fill-opacity:1;" />
<path d="M 63.414062 204.769531 C 60.257812 204.769531 57.296875 202.8125 56.175781 199.667969 L 48.183594 177.292969 C 46.753906 173.296875 48.839844 168.898438 52.835938 167.46875 C 56.832031 166.042969 61.230469 168.125 62.65625 172.121094 L 70.648438 194.496094 C 72.078125 198.496094 69.996094 202.894531 65.996094 204.320312 C 65.140625 204.625 64.269531 204.769531 63.414062 204.769531 Z M 63.414062 204.769531 " style=" stroke:none;fill-rule:nonzero;fill:rgb(100%,71.372549%,29.803922%);fill-opacity:1;" />
<path d="M 128.777344 159.828125 C 127.867188 159.828125 126.9375 159.664062 126.035156 159.316406 L 106.203125 151.730469 C 102.238281 150.214844 100.253906 145.769531 101.769531 141.804688 C 103.289062 137.839844 107.734375 135.855469 111.695312 137.375 L 131.527344 144.960938 C 135.492188 146.476562 137.476562 150.921875 135.957031 154.886719 C 134.789062 157.945312 131.871094 159.828125 128.777344 159.828125 Z M 128.777344 159.828125 " style=" stroke:none;fill-rule:nonzero;fill:rgb(43.529412%,67.843137%,63.137255%);fill-opacity:1;" />
<path d="M 366.261719 104.957031 C 362.160156 104.957031 358.757812 101.71875 358.589844 97.585938 C 358.414062 93.34375 361.710938 89.765625 365.953125 89.59375 L 383.949219 88.855469 C 388.179688 88.683594 391.769531 91.976562 391.941406 96.21875 C 392.117188 100.460938 388.816406 104.039062 384.578125 104.214844 L 366.582031 104.949219 C 366.472656 104.953125 366.367188 104.957031 366.261719 104.957031 Z M 366.261719 104.957031 " style=" stroke:none;fill-rule:nonzero;fill:rgb(100%,80.392157%,41.960784%);fill-opacity:1;" />
<path d="M 450.898438 208.125 C 448.957031 208.125 447.015625 207.394531 445.519531 205.925781 C 442.488281 202.953125 442.441406 198.089844 445.410156 195.058594 L 457.339844 182.894531 C 460.3125 179.863281 465.175781 179.816406 468.207031 182.785156 C 471.238281 185.757812 471.285156 190.625 468.316406 193.65625 L 456.386719 205.820312 C 454.882812 207.355469 452.890625 208.125 450.898438 208.125 Z M 450.898438 208.125 " style=" stroke:none;fill-rule:nonzero;fill:rgb(100%,80.392157%,41.960784%);fill-opacity:1;" />
<path d="M 262.660156 88.019531 C 258.414062 88.019531 254.972656 84.582031 254.972656 80.335938 L 254.972656 63.257812 C 254.972656 59.011719 258.414062 55.570312 262.660156 55.570312 C 266.90625 55.570312 270.34375 59.011719 270.34375 63.257812 L 270.34375 80.335938 C 270.34375 84.578125 266.90625 88.019531 262.660156 88.019531 Z M 262.660156 88.019531 " style=" stroke:none;fill-rule:nonzero;fill:rgb(100%,71.372549%,29.803922%);fill-opacity:1;" />
<path d="M 336.964844 7.558594 C 333.589844 4.988281 328.765625 5.640625 326.195312 9.019531 L 312.566406 26.933594 L 308.289062 6.605469 C 307.414062 2.449219 303.335938 -0.207031 299.1875 0.664062 C 295.03125 1.539062 292.375 5.613281 293.246094 9.769531 L 300.984375 46.546875 C 300.992188 46.578125 301 46.609375 301.007812 46.636719 C 301.03125 46.738281 301.058594 46.839844 301.085938 46.941406 C 301.121094 47.074219 301.15625 47.203125 301.195312 47.328125 C 301.226562 47.425781 301.261719 47.519531 301.296875 47.613281 C 301.34375 47.746094 301.394531 47.875 301.449219 48 C 301.488281 48.089844 301.527344 48.179688 301.570312 48.265625 C 301.632812 48.394531 301.695312 48.523438 301.765625 48.648438 C 301.808594 48.730469 301.855469 48.8125 301.902344 48.894531 C 301.980469 49.023438 302.0625 49.144531 302.144531 49.269531 C 302.191406 49.34375 302.242188 49.417969 302.292969 49.488281 C 302.398438 49.628906 302.507812 49.765625 302.617188 49.894531 C 302.660156 49.945312 302.695312 49.996094 302.738281 50.042969 C 302.894531 50.222656 303.0625 50.394531 303.238281 50.558594 C 303.269531 50.589844 303.308594 50.617188 303.339844 50.648438 C 303.488281 50.78125 303.636719 50.910156 303.792969 51.03125 C 303.8125 51.046875 303.832031 51.066406 303.855469 51.082031 C 303.875 51.101562 303.898438 51.109375 303.921875 51.128906 C 304.226562 51.355469 304.546875 51.558594 304.878906 51.738281 C 304.929688 51.765625 304.984375 51.789062 305.035156 51.816406 C 305.355469 51.980469 305.6875 52.125 306.035156 52.242188 C 306.085938 52.257812 306.136719 52.273438 306.191406 52.289062 C 306.539062 52.398438 306.894531 52.488281 307.257812 52.550781 C 307.289062 52.554688 307.320312 52.558594 307.351562 52.5625 C 307.730469 52.621094 308.113281 52.65625 308.5 52.65625 C 308.777344 52.65625 309.054688 52.636719 309.335938 52.605469 C 309.429688 52.597656 309.523438 52.578125 309.617188 52.5625 C 309.777344 52.539062 309.933594 52.519531 310.089844 52.488281 C 310.113281 52.484375 310.136719 52.476562 310.160156 52.46875 C 310.265625 52.445312 310.367188 52.414062 310.472656 52.386719 C 310.636719 52.34375 310.800781 52.300781 310.960938 52.246094 C 311.066406 52.210938 311.164062 52.171875 311.265625 52.132812 C 311.425781 52.070312 311.582031 52.007812 311.734375 51.9375 C 311.835938 51.890625 311.929688 51.84375 312.027344 51.792969 C 312.179688 51.714844 312.328125 51.632812 312.476562 51.542969 C 312.566406 51.488281 312.65625 51.433594 312.742188 51.375 C 312.898438 51.273438 313.046875 51.164062 313.1875 51.054688 C 313.261719 50.996094 313.335938 50.945312 313.410156 50.882812 C 313.621094 50.707031 313.824219 50.523438 314.015625 50.328125 C 314.019531 50.324219 314.019531 50.324219 314.023438 50.320312 C 314.21875 50.117188 314.402344 49.902344 314.574219 49.679688 C 314.589844 49.660156 314.609375 49.640625 314.625 49.621094 L 338.429688 18.332031 C 341 14.949219 340.34375 10.128906 336.964844 7.558594 Z M 336.964844 7.558594 " style=" stroke:none;fill-rule:nonzero;fill:rgb(100%,80.392157%,41.960784%);fill-opacity:1;" />
<path d="M 188.960938 99.636719 C 186.585938 99.636719 184.242188 98.539062 182.738281 96.46875 L 169.644531 78.464844 C 169.632812 78.453125 169.628906 78.4375 169.632812 78.421875 C 170.597656 68.222656 180.296875 66.980469 184.238281 72.398438 L 197.335938 90.40625 C 196.765625 96.738281 192.816406 99.636719 188.960938 99.636719 Z M 188.960938 99.636719 " style=" stroke:none;fill-rule:nonzero;fill:rgb(100%,71.372549%,29.803922%);fill-opacity:1;" />
<path d="M 224.402344 121.496094 C 223.453125 121.496094 222.488281 121.320312 221.554688 120.949219 C 217.613281 119.375 215.691406 114.902344 217.265625 110.960938 L 224.097656 93.84375 C 225.667969 89.898438 230.140625 87.980469 234.082031 89.554688 C 238.023438 91.125 239.945312 95.597656 238.371094 99.539062 L 231.539062 116.660156 C 230.339844 119.667969 227.453125 121.496094 224.402344 121.496094 Z M 224.402344 121.496094 " style=" stroke:none;fill-rule:nonzero;fill:rgb(100%,71.372549%,29.803922%);fill-opacity:1;" />
<path d="M 320.734375 88.023438 C 317.855469 88.023438 315.097656 86.398438 313.78125 83.625 L 307.632812 70.644531 C 305.816406 66.808594 307.453125 62.226562 311.289062 60.410156 C 315.125 58.59375 319.707031 60.230469 321.527344 64.066406 L 327.671875 77.042969 C 329.492188 80.878906 327.855469 85.464844 324.019531 87.28125 C 322.957031 87.785156 321.835938 88.023438 320.734375 88.023438 Z M 320.734375 88.023438 " style=" stroke:none;fill-rule:nonzero;fill:rgb(100%,71.372549%,29.803922%);fill-opacity:1;" />
<path d="M 325.519531 118.761719 C 325.214844 118.761719 324.90625 118.746094 324.597656 118.707031 L 308.886719 116.828125 C 304.671875 116.324219 301.664062 112.5 302.167969 108.285156 C 302.671875 104.070312 306.496094 101.0625 310.710938 101.566406 L 326.421875 103.445312 C 330.636719 103.949219 333.644531 107.777344 333.140625 111.988281 C 332.675781 115.894531 329.355469 118.761719 325.519531 118.761719 Z M 325.519531 118.761719 " style=" stroke:none;fill-rule:nonzero;fill:rgb(100%,71.372549%,29.803922%);fill-opacity:1;" />
</g>
</svg>