<?xml version="1.0" encoding="iso-8859-1"?>
<!-- Generator: Adobe Illustrator 19.0.0, SVG Export Plug-In . SVG Version: 6.00 Build 0)  -->
<svg version="1.1" id="Capa_1" xmlns="http://www.w3.org/2000/svg" xmlns:xlink="http://www.w3.org/1999/xlink" x="0px" y="0px"
	 viewBox="0 0 512 512" style="enable-background:new 0 0 512 512;" xml:space="preserve">
<rect x="207.906" y="222.815" style="fill:#8759B5;" width="96.188" height="32.063"/>
<g>
	<path style="fill:#FF6BB5;" d="M119.734,182.738C71.64,118.613,7.515,168.855,7.515,230.832
		c0,72.141,112.219,128.25,112.219,128.25s112.219-56.11,112.219-128.251C231.953,168.855,167.828,118.613,119.734,182.738z
		 M156.333,296.54c-13.298,11.021-26.824,19.881-36.599,25.772c-9.775-5.892-23.302-14.752-36.599-25.772
		c-28.089-23.278-43.557-46.614-43.557-65.708c0-25.393,16.605-45.84,30.355-45.84c7.36,0,15.937,6.032,24.151,16.983l25.65,34.2
		l25.65-34.2c8.214-10.952,16.792-16.983,24.151-16.983c13.75,0,30.355,20.447,30.355,45.84
		C199.89,249.926,184.422,273.262,156.333,296.54z"/>
	<path style="fill:#FF6BB5;" d="M392.266,182.738c-48.094-64.125-112.219-13.883-112.219,48.094
		c0,72.141,112.219,128.25,112.219,128.25s112.219-56.11,112.219-128.251C504.485,168.855,440.36,118.613,392.266,182.738z
		 M428.866,296.54c-13.298,11.021-26.824,19.881-36.599,25.772c-9.775-5.892-23.302-14.752-36.599-25.772
		c-28.088-23.278-43.557-46.614-43.557-65.708c0-25.393,16.605-45.84,30.355-45.84c7.36,0,15.937,6.032,24.151,16.983l25.65,34.2
		l25.65-34.2c8.214-10.952,16.792-16.983,24.151-16.983c13.75,0,30.355,20.447,30.355,45.84
		C472.423,249.926,456.954,273.262,428.866,296.54z"/>
</g>
<path d="M196.001,194.046c-7.46-10.53-17.105-16.568-26.466-16.568c-9.925,0-20.355,6.911-30.163,19.989l-19.638,26.184
	l-19.638-26.184c-9.808-13.078-20.239-19.989-30.163-19.989c-9.359,0-19.006,6.039-26.466,16.568
	c-7.354,10.381-11.404,23.445-11.404,36.786c0,21.372,16.434,46.762,46.276,71.494c13.938,11.551,28.095,20.744,37.515,26.423
	c2.362,1.424,5.397,1.424,7.758,0c9.421-5.679,23.578-14.872,37.515-26.423c29.843-24.731,46.277-50.122,46.277-71.494
	C207.405,217.491,203.355,204.427,196.001,194.046z M151.396,206.484c7.729-10.305,14.438-13.977,18.139-13.977
	c6.687,0,16.067,9.119,20.43,22.795h-45.182L151.396,206.484z M119.734,243.69c2.366,0,4.592-1.113,6.012-3.006l7.981-10.641
	c0.649,0.183,1.332,0.288,2.039,0.288h56.11c0.165,0,0.328-0.014,0.491-0.025c0.002,0.176,0.01,0.35,0.01,0.526
	c0,5.071-1.4,10.636-4.077,16.532H51.169c-2.677-5.897-4.077-11.461-4.077-16.532c0-0.176,0.009-0.35,0.01-0.526
	c0.163,0.011,0.325,0.025,0.491,0.025h56.11c0.707,0,1.39-0.104,2.039-0.288l7.981,10.641
	C115.142,242.577,117.368,243.69,119.734,243.69z M69.933,192.507c3.701,0,10.41,3.672,18.139,13.977l6.613,8.817H49.503
	C53.865,201.626,63.246,192.507,69.933,192.507z M119.734,313.499c-7.577-4.717-17.32-11.227-27.224-19.043h54.447
	C137.054,302.272,127.311,308.781,119.734,313.499z M164.155,279.427H75.313c-5.895-5.761-10.943-11.474-15.071-17.033h118.983
	C175.099,267.952,170.049,273.666,164.155,279.427z"/>
<path d="M468.533,194.046c-7.46-10.53-17.105-16.568-26.466-16.568c-9.924,0-20.355,6.911-30.163,19.989l-19.638,26.184
	l-19.638-26.184c-9.808-13.078-20.239-19.989-30.163-19.989c-9.36,0-19.006,6.039-26.466,16.568
	c-7.354,10.38-11.404,23.444-11.404,36.786c0,21.372,16.434,46.762,46.277,71.494c13.937,11.551,28.094,20.744,37.515,26.423
	c2.361,1.424,5.397,1.424,7.757,0c9.421-5.679,23.578-14.872,37.515-26.423c0.001,0,0.001,0,0.001,0
	c29.842-24.731,46.276-50.122,46.276-71.494C479.937,217.491,475.887,204.427,468.533,194.046z M423.928,206.484
	c7.729-10.305,14.438-13.977,18.139-13.977c6.686,0,16.066,9.119,20.43,22.795h-45.182L423.928,206.484z M392.266,243.69
	c2.365,0,4.593-1.113,6.012-3.006l7.981-10.641c0.649,0.183,1.332,0.288,2.039,0.288h56.11c0.165,0,0.328-0.014,0.491-0.025
	c0.002,0.176,0.01,0.35,0.01,0.526c0,5.071-1.4,10.636-4.077,16.532h-137.13c-2.677-5.897-4.077-11.461-4.077-16.532
	c0-0.176,0.009-0.35,0.01-0.526c0.163,0.011,0.325,0.025,0.491,0.025h56.11c0.707,0,1.39-0.104,2.039-0.288l7.981,10.641
	C387.673,242.577,389.902,243.69,392.266,243.69z M342.465,192.507c3.701,0,10.411,3.672,18.139,13.977l6.613,8.817h-45.183
	C326.398,201.626,335.779,192.507,342.465,192.507z M392.266,313.499c-7.577-4.717-17.319-11.227-27.223-19.043h54.447
	C409.585,302.272,399.843,308.781,392.266,313.499z M436.687,279.427h-88.841c-5.895-5.761-10.944-11.474-15.071-17.033h118.983
	C447.63,267.952,442.581,273.666,436.687,279.427z"/>
<path d="M459.603,148.299c-23.44-7.816-47.585,0.403-67.336,22.567c-19.751-22.165-43.895-30.38-67.337-22.567
	c-26.129,8.709-46.077,35.636-51.135,67.003h-35.59c-5.058-31.367-25.007-58.294-51.135-67.003
	c-23.445-7.817-47.586,0.402-67.338,22.567c-19.752-22.165-43.896-30.38-67.338-22.567C22.036,158.419,0,193.129,0,230.832
	c0,75.912,111.621,132.596,116.373,134.972c2.096,1.049,4.625,1.049,6.721,0c4.066-2.033,86.366-43.831,110.043-103.41h45.725
	c23.677,59.579,105.977,101.377,110.043,103.41c2.096,1.049,4.626,1.049,6.722,0c1.176-0.588,29.137-14.674,57.518-37.986
	c3.206-2.635,3.671-7.369,1.037-10.578c-2.635-3.206-7.37-3.668-10.578-1.037c-21.468,17.634-43.182,29.988-51.334,34.386
	c-18.27-9.888-104.71-59.861-104.71-119.757c0-30.918,18.107-60.271,42.12-68.275c19.63-6.545,39.724,2.224,56.572,24.69
	c2.956,3.943,9.067,3.943,12.023,0c16.849-22.466,36.942-31.235,56.572-24.69c24.013,8.005,42.12,37.357,42.12,68.275
	c0,21.503-11.193,44.021-33.267,66.927c-2.88,2.988-2.791,7.745,0.196,10.625c2.988,2.881,7.746,2.792,10.625-0.196
	C499.391,282.385,512,256.359,512,230.832C512,193.129,489.964,158.419,459.603,148.299z M119.734,350.587
	c-18.278-9.892-104.704-59.863-104.704-119.755c0-30.918,18.107-60.271,42.12-68.275c4.244-1.415,8.508-2.113,12.757-2.113
	c15.407,0,30.609,9.195,43.815,26.803c2.957,3.943,9.067,3.943,12.023,0c16.85-22.466,36.943-31.235,56.572-24.69
	c24.014,8.005,42.121,37.357,42.121,68.275C224.438,290.724,138.01,340.694,119.734,350.587z M237.706,247.364
	c1.136-5.397,1.761-10.91,1.761-16.532c0-0.167-0.008-0.334-0.009-0.501h33.083c-0.001,0.167-0.009,0.334-0.009,0.501
	c0,5.622,0.626,11.136,1.761,16.532H237.706z"/>
<g>
</g>
<g>
</g>
<g>
</g>
<g>
</g>
<g>
</g>
<g>
</g>
<g>
</g>
<g>
</g>
<g>
</g>
<g>
</g>
<g>
</g>
<g>
</g>
<g>
</g>
<g>
</g>
<g>
</g>
</svg>
