<svg id="Expand_Filled" height="512" viewBox="0 0 64 64" width="512" xmlns="http://www.w3.org/2000/svg" data-name="Expand Filled"><g id="_5" data-name="5"><g><path d="m32 1a31 31 0 1 0 31 31 31 31 0 0 0 -31-31zm0 47a16 16 0 1 1 16-16 16 16 0 0 1 -16 16z" fill="#9bc53d"/><g fill="#fcb641"><path d="m17.573 38.883a15.846 15.846 0 0 1 0-13.766 10.971 10.971 0 0 0 -15.337-1.779 30.97 30.97 0 0 0 0 17.324 10.971 10.971 0 0 0 15.337-1.779z"/><path d="m53 21.045a10.972 10.972 0 0 0 -6.926 3.339 16.021 16.021 0 0 1 0 15.232 10.968 10.968 0 0 0 16.024-.19 31.019 31.019 0 0 0 0-14.852 10.969 10.969 0 0 0 -7.098-3.529"/><path d="m32 11a11 11 0 0 0 10.61-8.135 31.113 31.113 0 0 0 -21.22 0 11 11 0 0 0 10.61 8.135z"/><path d="m32 53a11 11 0 0 0 -10.61 8.135 31.113 31.113 0 0 0 21.22 0 11 11 0 0 0 -10.61-8.135z"/></g><g fill="#e65039"><path d="m14 14a3.994 3.994 0 0 0 .937-7.878 31.029 31.029 0 0 0 -4.922 4.026 3.991 3.991 0 0 0 3.985 3.852z"/><path d="m55.535 52.165a3.99 3.99 0 1 0 -5.706 5.187 31.14 31.14 0 0 0 5.706-5.187z"/><g><path d="m43.367 20.745a3.994 3.994 0 1 0 -5.367-3.745c0 .062.015.119.018.181a16 16 0 0 1 5.349 3.564z"/><path d="m20.451 43.055a3.992 3.992 0 1 0 4.549 3.945 3.887 3.887 0 0 0 -.067-.661 16.031 16.031 0 0 1 -4.482-3.284z"/></g></g><path d="m64 32a31.987 31.987 0 0 0 -49.51-26.773 1.093 1.093 0 0 0 -.105.06 32.255 32.255 0 0 0 -5.079 4.155 1 1 0 0 0 -.106.128 31.984 31.984 0 0 0 41.121 48.652.9.9 0 0 0 .084-.052 32.2 32.2 0 0 0 5.889-5.354.965.965 0 0 0 .068-.09 31.86 31.86 0 0 0 7.638-20.726zm-3.812-10.273a11.9 11.9 0 0 0 -5.1-1.678l-.182 1.992a9.967 9.967 0 0 1 6.282 3.027 30.113 30.113 0 0 1 0 13.862 10.022 10.022 0 0 1 -7.188 3.07 9.9 9.9 0 0 1 -6.7-2.589 16.986 16.986 0 0 0 0-14.822 9.974 9.974 0 0 1 5.792-2.548l-.18-1.992a11.964 11.964 0 0 0 -6.612 2.761 17.16 17.16 0 0 0 -1.335-1.8 4.994 4.994 0 1 0 -7.818-5.21 17 17 0 0 0 -19.8 7.59 11.983 11.983 0 0 0 -13.283-2.326 30.043 30.043 0 0 1 5.44-8.89 5 5 0 1 0 7.511-6.156 29.815 29.815 0 0 1 3.748-1.834 12.015 12.015 0 0 0 11.237 7.816 12.015 12.015 0 0 0 11.237-7.816 30.162 30.162 0 0 1 16.951 17.543zm-40.068 22.422a17.1 17.1 0 0 0 3.88 2.851 3 3 0 1 1 -3.88-2.851zm5.389 1.373a.938.938 0 0 0 -.133-.08 14.972 14.972 0 0 1 -4.2-3.078.96.96 0 0 0 -.076-.064 15 15 0 0 1 16.456-24.233c.028.014.056.028.086.04a15.083 15.083 0 0 1 2.314 1.182l.12.075.024.016a15 15 0 0 1 -14.591 26.142zm-23.509-13.522a29.931 29.931 0 0 1 1.1-8.063 9.968 9.968 0 0 1 13.288 1.334 16.994 16.994 0 0 0 0 13.458 9.968 9.968 0 0 1 -13.288 1.334 29.931 29.931 0 0 1 -1.1-8.063zm41.564-12.456a16.852 16.852 0 0 0 -2.818-2.117l-.165-.1-.04-.024c-.487-.283-.988-.544-1.5-.779a3 3 0 1 1 4.526 3.018zm-28.458-12.323a2.994 2.994 0 1 1 -4.046 3.315 30.319 30.319 0 0 1 4.046-3.315zm26.253-3.721a10.01 10.01 0 0 1 -9.359 6.5 10.01 10.01 0 0 1 -9.359-6.5 30.042 30.042 0 0 1 18.718 0zm-37.295 39.436a11.983 11.983 0 0 0 13.284-2.322 17.036 17.036 0 0 0 1.352 1.965 4.992 4.992 0 1 0 7.221 5.3 16.992 16.992 0 0 0 20.379-6.688 11.864 11.864 0 0 0 7.7 2.809 11.985 11.985 0 0 0 6.19-1.733 29.972 29.972 0 0 1 -4.611 8.261 4.991 4.991 0 0 0 -7.379 6.713 29.928 29.928 0 0 1 -4.961 2.575 11.986 11.986 0 0 0 -22.474 0 30.165 30.165 0 0 1 -16.701-16.88zm45.793 13.156a2.991 2.991 0 1 1 4.421-4.021 30.279 30.279 0 0 1 -4.421 4.021zm-27.216 4.413a9.985 9.985 0 0 1 18.718 0 30.042 30.042 0 0 1 -18.718 0z"/></g></g></svg>