<svg height="512pt" viewBox="-23 0 512 512.00009" width="512pt" xmlns="http://www.w3.org/2000/svg"><g fill-rule="evenodd"><path d="m381.566406 29.699219c-71.992187 102.15625-288.644531-41.371094-288.644531 179.402343l170.664063 43.101563 167.601562-51.773437v1.277343c37.742188-70.078125 31.53125-129.644531 10.40625-162.628906-21.207031-33.066406-37.964844-40.71875-60.027344-9.378906zm0 0" fill="#808080"/><path d="m93.855469 269.882812c4.480469 55.058594 25.207031 117.484376 67.339843 159.511719 90.367188 59.136719 118.039063 45.394531 153.003907 34.171875 65.835937-29.722656 116.988281-109.265625 116.988281-167.953125v-38.507812zm0 0" fill="#ffdda6"/><path d="m114.1875 260.363281-21.265625-21.507812h-40.179687l-22.910157 26.496093 22.910157 24.425782h43.410156zm0 0" fill="#e6e6e6"/><path d="m52.742188 289.777344v-162.257813c0-18.761719 4.90625-21.765625 15.394531-35.28125l35.839843-44.972656c18.773438-23.574219-16.671874-56.164063-40.089843-29.980469l-39.753907 44.433594c-17.410156 19.46875-16.476562 30.632812-16.476562 61.972656l-.140625 205.21875.171875 100.484375c.027344 31.679688 27.332031 45.054688 44.742188 45.054688l174.804687.425781c-1.503906-3.144531-2.664063-6.488281-3.488281-9.945312-.90625-3.828126-1.390625-5.640626-1.390625-11.929688 0-6.320312 2.070312-16.523438 5.699219-23.605469h-164.480469c-5.957031 0-10.832031-4.847656-10.832031-10.796875zm0 0" fill="#64b0d9"/><path d="m431.1875 200.429688-145.257812-22.925782c-17.183594-2.917968-20.417969-3.652344-37.515626-.195312l-155.492187 31.792968v40.492188c.054687 6.605469.367187 13.40625.933594 20.289062 4.421875 37.578126 24.214843 72.769532 65.753906 85.890626 36.292969 11.476562 78.710937.058593 103.183594-27.402344 24.496093 27.515625 67.027343 38.933594 103.351562 27.316406 46.019531-14.707031 64.050781-56.558594 65.042969-98.582031zm0 0" fill="#f74311"/><path d="m284.367188 212.871094c-15.734376-2.464844-20.527344-3.144532-38.191407 0l-117.246093 22.101562v14.992188c-2.863282 109.152344 117.472656 88.75 118.890624 28.617187.453126-19.550781 29.515626-21.476562 30 0 1.332032 60.132813 121.496094 80.535157 118.632813-28.617187v-15.390625zm0 0" fill="#a2d6f2"/><path d="m315.273438 452.996094c0-28.421875-23.023438-51.429688-51.460938-51.429688-19.90625 0-37.203125 11.304688-45.738281 27.824219-3.65625 7.085937-5.726563 15.105469-5.726563 23.605469 0 4.109375.480469 8.105468 1.390625 11.929687.820313 3.457031 2.011719 6.800781 3.488281 9.949219 8.222657 17.453125 26 29.554688 46.585938 29.554688 24.78125 0 45.480469-17.511719 50.382812-40.863282.710938-3.398437 1.078126-6.941406 1.078126-10.570312zm0 0" fill="#e6e6e6"/><path d="m315.273438 452.996094c0-28.421875-23.023438-51.429688-51.460938-51.429688-4.734375 0-9.328125.621094-13.695312 1.8125 16.472656 8.585938 27.703124 25.816406 27.703124 45.652344 0 3.625-.371093 7.167969-1.078124 10.597656-1.019532 4.875-2.75 9.519532-5.046876 13.769532-.425781.765624-.851562 1.53125-1.304687 2.269531-6.71875 11.078125-17.523437 19.4375-30.339844 22.953125 7.117188 3.710937 15.199219 5.808594 23.761719 5.808594 24.78125 0 45.480469-17.511719 50.386719-40.863282.707031-3.398437 1.074219-6.941406 1.074219-10.570312zm0 0" fill="#c2c7cc"/><path d="m52.742188 418.597656c0-97.027344 0-194.054687 0-291.078125 0-18.761719 4.90625-21.765625 15.394531-35.28125l35.839843-44.972656c16.730469-20.996094-9.527343-49.105469-32.011718-36.582031 12.277344 6.746094 17.550781 21.394531 6.496094 34.570312l-33.542969 40.015625c-10.492188 13.515625-15.398438 16.519531-15.398438 35.277344-.539062 99.351563-.285156 198.699219-.285156 298.050781 0 5.949219 4.878906 10.796875 10.832031 10.796875h23.507813c-5.957031 0-10.832031-4.847656-10.832031-10.796875zm0 0" fill="#4a83c9"/><path d="m431.1875 201.707031c37.742188-70.078125 31.53125-129.644531 10.40625-162.628906-20.667969-32.246094-37.117188-40.351563-58.410156-11.617187.566406.878906 1.164062 1.757812 1.730468 2.691406 21.039063 32.785156 14.261719 118.535156-26.339843 158.800781l72.613281 11.476563zm0 0" fill="#666"/><path d="m431.1875 249.59375v-49.164062l-56.027344-8.839844-16.585937-2.636719v38.285156l37.878906 7.335938v15.390625c.085937 2.917968.085937 5.722656-.027344 8.441406-1.417969 41.203125-21.746093 61.804688-45.167969 67.613281-3.714843 11.363281-8.789062 22.894531-14.972656 34.171875 10.066406.058594 20.191406-1.414062 29.859375-4.503906 46.019531-14.707031 64.050781-56.5625 65.042969-98.585938-.226562-1.359374 0-5.835937 0-7.507812zm0 0" fill="#d92525"/><path d="m314.199219 463.566406c65.835937-29.722656 116.988281-109.265625 116.988281-167.953125v-38.507812c-.992188 42.023437-19.027344 83.875-65.042969 98.582031-9.671875 3.089844-19.792969 4.5625-29.859375 4.507812-10.40625 18.957032-23.988281 37.234376-39.808594 53.046876 11.484376 9.433593 18.796876 23.71875 18.796876 39.757812 0 3.625-.367188 7.167969-1.074219 10.566406zm0 0" fill="#fcc368"/><path d="m351.257812 326.019531c23.421876-5.808593 43.75-26.410156 45.167969-67.613281.113281-2.71875.113281-5.523438.027344-8.441406v-15.390625l-22.199219-4.304688v14.734375c.140625 5.015625 0 9.777344-.371094 14.28125-3.855468 47.070313-33.855468 64.835938-62.664062 63.476563 12.421875 5.128906 26.742188 6.574219 40.039062 3.257812zm0 0" fill="#64b0d9"/></g><path d="m438.761719 249.507812v-45.921874c39.089843-73.773438 30.472656-135.386719 9.207031-168.59375-14.539062-22.671876-26.292969-32.460938-39.308594-32.742188-11.449218-.253906-22.023437 7.09375-33.28125 23.085938-14.835937 21.03125-37.171875 32.515624-72.425781 37.238281-4.144531.558593-7.054687 4.367187-6.5 8.511719.558594 4.144531 4.371094 7.054687 8.515625 6.496093 24.691406-3.308593 60.140625-11.417969 82.792969-43.527343 7.785156-11.0625 14.644531-16.667969 20.386719-16.667969.0625 0 .125 0 .1875.003906 7.0625.152344 15.855468 8.582031 26.878906 25.769531 18.554687 28.972656 25.898437 82.976563-7.605469 149.039063l-140.414063-22.160157-1.433593-.242187c-16.441407-2.796875-20.859375-3.550781-38.863281.09375l-146.265626 29.90625c1.496094-51.570313 15.742188-83.722656 44.507813-100.761719 27.328125-16.1875 64.019531-17.089844 102.867187-18.042968 6.269532-.152344 12.753907-.3125 19.109376-.542969 4.179687-.148438 7.445312-3.660157 7.296874-7.835938-.148437-4.179687-3.675781-7.40625-7.839843-7.296875-6.273438.226563-12.710938.386719-18.9375.539063-39.082031.957031-79.492188 1.949219-110.21875 20.152343-35.039063 20.757813-52.070313 61.023438-52.070313 123.09375v22.179688h-25.035156v-103.761719c0-13.441406 2.230469-16.207031 9.613281-25.363281 1.285157-1.59375 2.683594-3.328125 4.132813-5.199219l35.84375-44.972656c12.414062-15.597656 6.84375-33.933594-5.074219-43.992187-11.746094-9.90625-31.332031-12.804688-46.589844 4.25l-39.753906 44.433593c-18.46875 20.652344-18.4492188 33.757813-18.40625 62.472657l.0078125 4.539062-.0859375 140.582031c-.00390625 4.179688 3.386719 7.574219 7.566406 7.574219h.003906c4.183594 0 7.570313-3.386719 7.574219-7.566406l.085938-140.585938-.003907-4.566406c-.042968-27.671875-.054687-36.023438 14.550782-52.355469l39.753906-44.433593c9.144531-10.226563 19.46875-7.882813 25.53125-2.773438 6.132812 5.175781 9.6875 14.578125 2.992188 22.988281l-35.898438 45.046875c-1.449219 1.867188-2.789062 3.527344-4.019531 5.054688-8.085938 10.027344-12.96875 16.082031-12.96875 34.867187v291.078125c0 10.125 8.257812 18.367188 18.40625 18.367188h143.433593c-1.441406 5.101562-2.230468 10.472656-2.230468 16.03125 0 4.921875.613281 9.703125 1.757812 14.277344l-154.105468-.398438c-12.117188 0-37.144532-9.164062-37.167969-37.488281l-.113281-130.523438c-.003907-4.175781-3.394532-7.5625-7.574219-7.5625-.003907 0-.003907 0-.007813 0-4.179687.003907-7.57031225 3.394531-7.566406 7.578125l.113281 130.519532c.019531 20.804687 10.15625 33.386718 18.65625 40.28125 9.527344 7.726562 22.109375 12.339843 33.640625 12.339843l160.269532.414063c10.214843 17.652344 29.300781 29.566406 51.132812 29.566406 27.035156 0 49.867188-18.261719 56.835938-43.085938 31.191406-14.945312 60.550781-41.167968 83-74.207031 22.316406-32.847656 35.113281-68.96875 35.113281-99.09375v-39.160156c.042969-2.300781.054687-4.613281 0-6.945313zm-188.84375-64.78125c15.226562-3.078124 17.636719-2.667968 33.300781-.003906l1.527344.261719 138.867187 21.914063v49.664062c-.617187 26.457031-8.898437 75.644531-59.777343 91.914062-33.457032 10.703126-72.683594.363282-95.390626-25.136718-1.433593-1.617188-3.492187-2.539063-5.652343-2.539063-2.160157 0-4.21875.921875-5.65625 2.535157-22.652344 25.417968-61.816407 35.792968-95.246094 25.21875-45.8125-14.472657-57.777344-55.269532-60.621094-81.273438-.460937-6.113281-.726562-12.058594-.777343-17.753906v-34.246094zm-164.570313 61.699219v3.082031c-.164062 7.167969.167969 14.1875.957032 21.015626.3125 3.894531.703124 7.789062 1.171874 11.683593h-27.160156v-35.78125zm-25.035156 172.171875v-121.25h29.359375c2.863281 16.753906 7.105469 33.308594 12.667969 49.175782 10.234375 29.214843 24.234375 54.460937 41.703125 75.300781h-80.46875c-1.769531-.003907-3.261719-1.480469-3.261719-3.226563zm203.5 78.261719c-24.203125 0-43.890625-19.675781-43.890625-43.863281 0-24.183594 19.6875-43.859375 43.890625-43.859375 24.199219 0 43.890625 19.675781 43.890625 43.859375 0 24.1875-19.691406 43.863281-43.890625 43.863281zm58.980469-46.097656c-1.183594-31.5-27.179688-56.765625-58.980469-56.765625-21.105469 0-39.652344 11.132812-50.089844 27.824218h-49.289062c-23.339844-24.105468-39.265625-54.375-49.382813-85.164062 11.371094 12.125 25.675781 21.089844 42.273438 26.335938 36.289062 11.472656 78.449219 1.683593 105.464843-23.769532 19.433594 18.335938 46.683594 28.535156 73.949219 28.535156 10.726563 0 21.453125-1.578124 31.710938-4.859374 21.941406-7.015626 39.140625-20.007813 51.261719-38.648438-11.542969 45.46875-47.816407 99.15625-96.917969 126.511719zm0 0"/><path d="m154.679688 326.007812c10.171874 6.21875 22.175781 9.332032 34.425781 9.332032 11.980469-.003906 24.195312-2.980469 35.140625-8.949219 19.328125-10.535156 30.679687-27.894531 31.144531-47.628906.148437-6.316407 5.058594-8 7.9375-8h.003906c2.027344 0 6.757813.78125 6.917969 7.992187.4375 19.734375 11.753906 37.097656 31.046875 47.632813 22.074219 12.058593 49.3125 11.921875 69.398437-.34375 22.40625-13.6875 34.242188-40.734375 33.332032-76.179688v-15.285156c0-3.628906-2.570313-6.742187-6.132813-7.433594l-112.082031-21.707031c-.089844-.015625-.179688-.03125-.269531-.046875-16.742188-2.621094-22.386719-3.234375-40.769531.039063l-117.246094 22.101562c-3.578125.675781-6.167969 3.800781-6.167969 7.441406v14.890625c-.910156 35.410157 10.921875 62.445313 33.320313 76.144531zm-18.179688-75.847656c0-.0625.003906-.132812.003906-.195312v-8.714844l111-20.925781c16.574219-2.953125 20.640625-2.332031 35.558594.003906l105.816406 20.492187v9.144532c0 .066406.003906.132812.003906.195312.792969 30.28125-8.226562 52.050782-26.085937 62.960938-15.550781 9.496094-36.839844 9.488281-54.242187-.019532-14.40625-7.871093-22.851563-20.511718-23.167969-34.6875-.351563-15.65625-11.675781-22.792968-22.050781-22.796874-.003907 0-.007813 0-.007813 0-10.933594 0-22.738281 7.988281-23.082031 22.789062-.332032 14.175781-8.808594 26.820312-23.253906 34.691406-17.46875 9.523438-38.828126 9.519532-54.410157-.007812-17.855469-10.921875-26.875-32.679688-26.082031-62.929688zm0 0"/></svg>