<?xml version="1.0" encoding="iso-8859-1"?>
<!-- Generator: Adobe Illustrator 19.0.0, SVG Export Plug-In . SVG Version: 6.00 Build 0)  -->
<svg version="1.1" id="Capa_1" xmlns="http://www.w3.org/2000/svg" xmlns:xlink="http://www.w3.org/1999/xlink" x="0px" y="0px"
	 viewBox="0 0 512.001 512.001" style="enable-background:new 0 0 512.001 512.001;" xml:space="preserve">
<path style="fill:#E6595A;" d="M496.989,240.723l-51.739-43.387c-9.868-8.274-15.074-20.846-13.948-33.674l5.905-67.264
	c1.085-12.354-9.252-22.69-21.606-21.606l-67.264,5.905c-12.829,1.127-25.399-4.08-33.674-13.948L271.277,15.01
	c-7.969-9.502-22.586-9.502-30.555,0L197.336,66.75c-8.274,9.868-20.846,15.074-33.674,13.948l-67.264-5.905
	c-12.354-1.085-22.69,9.252-21.606,21.606l5.905,67.264c1.126,12.829-4.08,25.399-13.948,33.674L15.01,240.723
	c-9.502,7.969-9.502,22.586,0,30.555l51.739,43.387c9.868,8.274,15.074,20.846,13.948,33.674l-5.905,67.264
	c-1.085,12.354,9.252,22.689,21.606,21.606l67.264-5.905c12.829-1.127,25.399,4.08,33.674,13.948l43.387,51.739
	c7.969,9.502,22.586,9.502,30.555,0l43.387-51.739c8.274-9.868,20.846-15.074,33.674-13.948l67.264,5.905
	c12.354,1.085,22.69-9.252,21.606-21.606l-5.905-67.264c-1.127-12.829,4.08-25.399,13.948-33.674l51.739-43.387
	C506.492,263.309,506.492,248.692,496.989,240.723z"/>
<circle style="opacity:0.1;enable-background:new    ;" cx="244.29" cy="267.72" r="145.359"/>
<circle style="fill:#F3C74F;" cx="255.999" cy="256" r="144.917"/>
<g>
	<path style="fill:#E6595A;" d="M180.17,285.109h-25.327c-4.354,0-7.883-3.53-7.883-7.883s3.53-7.883,7.883-7.883h25.327
		c4.354,0,7.883,3.53,7.883,7.883S184.524,285.109,180.17,285.109z"/>
	<path style="fill:#E6595A;" d="M357.157,285.109H331.83c-4.354,0-7.883-3.53-7.883-7.883s3.53-7.883,7.883-7.883h25.327
		c4.354,0,7.883,3.53,7.883,7.883S361.511,285.109,357.157,285.109z"/>
</g>
<path d="M285.72,246.001c-4.354,0-7.883,3.53-7.883,7.883c0,3.847-3.13,6.976-6.976,6.976c-3.847,0-6.977-3.13-6.977-6.976
	c0-4.354-3.53-7.883-7.883-7.883c-4.354,0-7.883,3.53-7.883,7.883c0,3.847-3.13,6.976-6.977,6.976s-6.976-3.13-6.976-6.976
	c0-4.354-3.53-7.883-7.883-7.883s-7.883,3.53-7.883,7.883c0,12.541,10.202,22.743,22.743,22.743c5.675,0,10.872-2.09,14.861-5.539
	c3.989,3.45,9.186,5.539,14.861,5.539c12.541,0,22.743-10.202,22.743-22.743C293.603,249.53,290.074,246.001,285.72,246.001z
	 M167.506,235.373c-4.354,0-7.883,3.53-7.883,7.883v4.153c0,4.354,3.53,7.883,7.883,7.883c4.354,0,7.883-3.53,7.883-7.883v-4.153
	C175.389,238.903,171.86,235.373,167.506,235.373z M344.493,235.373c-4.354,0-7.883,3.53-7.883,7.883v4.153
	c0,4.354,3.53,7.883,7.883,7.883s7.883-3.53,7.883-7.883v-4.153C352.376,238.903,348.847,235.373,344.493,235.373z M255.999,103.198
	c-84.255,0-152.802,68.546-152.802,152.802s68.546,152.802,152.802,152.802S408.801,340.255,408.801,256
	S340.255,103.198,255.999,103.198z M255.999,393.035c-75.562,0-137.035-61.474-137.035-137.035s61.473-137.035,137.035-137.035
	S393.035,180.438,393.035,256S331.561,393.035,255.999,393.035z M502.055,234.683l-51.739-43.387
	c-7.889-6.616-12.062-16.688-11.161-26.944l5.906-67.265c0.721-8.217-2.211-16.273-8.042-22.106
	c-5.832-5.833-13.897-8.762-22.106-8.042l-67.265,5.906c-10.253,0.899-20.329-3.272-26.944-11.161L277.318,9.945
	c-5.3-6.32-13.07-9.945-21.319-9.945c-8.248,0-16.018,3.624-21.318,9.945l-43.387,51.739c-6.616,7.889-16.681,12.058-26.944,11.161
	l-67.265-5.906c-8.216-0.72-16.273,2.211-22.106,8.042c-5.832,5.833-8.763,13.889-8.042,22.106l5.906,67.265
	c0.9,10.256-3.272,20.329-11.161,26.944L9.945,234.682C3.624,239.982,0,247.752,0,256s3.624,16.018,9.945,21.318l51.739,43.387
	c7.889,6.616,12.062,16.688,11.161,26.944l-5.906,67.265c-0.721,8.217,2.21,16.273,8.042,22.106
	c5.832,5.833,13.897,8.762,22.106,8.042l67.265-5.906c10.254-0.896,20.328,3.271,26.944,11.161l43.387,51.739
	c5.3,6.32,13.07,9.945,21.318,9.945s16.018-3.624,21.318-9.945l43.387-51.739c6.616-7.889,16.686-12.056,26.944-11.161l67.265,5.906
	c8.212,0.721,16.273-2.21,22.106-8.042c5.832-5.833,8.763-13.889,8.042-22.106l-5.906-67.265
	c-0.9-10.256,3.272-20.329,11.161-26.944l51.739-43.386c6.32-5.3,9.945-13.071,9.945-21.319
	C512,247.752,508.375,239.982,502.055,234.683z M491.924,265.237l-51.739,43.387c-11.829,9.92-18.086,25.024-16.736,40.404
	l5.906,67.265c0.312,3.56-0.958,7.051-3.484,9.578s-6.022,3.797-9.578,3.484l-67.265-5.906
	c-15.379-1.346-30.483,4.906-40.404,16.736l-43.386,51.739c-2.297,2.738-5.663,4.31-9.237,4.31s-6.941-1.57-9.237-4.31
	l-43.387-51.739c-9.029-10.768-22.352-16.917-36.27-16.917c-1.373,0-2.753,0.06-4.134,0.181l-67.265,5.906
	c-3.558,0.313-7.051-0.958-9.578-3.484c-2.527-2.527-3.798-6.018-3.484-9.578l5.906-67.265c1.35-15.379-4.907-30.483-16.736-40.404
	l-51.739-43.387c-2.738-2.297-4.31-5.663-4.31-9.237s1.57-6.941,4.31-9.237l51.739-43.387c11.829-9.92,18.086-25.024,16.736-40.403
	l-5.906-67.265c-0.312-3.56,0.958-7.051,3.484-9.578c2.527-2.528,6.02-3.802,9.578-3.484l67.265,5.906
	c15.378,1.349,30.483-4.906,40.403-16.736l43.388-51.739c2.297-2.738,5.662-4.31,9.236-4.31c3.574,0,6.941,1.57,9.237,4.31
	l43.387,51.739c9.92,11.829,25.03,18.086,40.404,16.736l67.265-5.906c3.557-0.316,7.051,0.958,9.578,3.484
	c2.527,2.527,3.798,6.018,3.484,9.578l-5.906,67.265c-1.35,15.379,4.907,30.483,16.736,40.403l51.739,43.387
	c0,0.001,0,0.001,0,0.001c2.738,2.297,4.309,5.662,4.309,9.236C496.233,259.574,494.663,262.941,491.924,265.237z"/>
<g>
</g>
<g>
</g>
<g>
</g>
<g>
</g>
<g>
</g>
<g>
</g>
<g>
</g>
<g>
</g>
<g>
</g>
<g>
</g>
<g>
</g>
<g>
</g>
<g>
</g>
<g>
</g>
<g>
</g>
</svg>
